<?xml version="1.0" encoding="UTF-8"?>
<svg width="54px" height="50px" viewBox="0 0 54 50" version="1.1" xmlns="http://www.w3.org/2000/svg" xmlns:xlink="http://www.w3.org/1999/xlink">
    <!-- Generator: sketchtool 52.2 (67145) - http://www.bohemiancoding.com/sketch -->
    <title>6AE35301-0F44-49D9-8428-4D6BFE5805B4</title>
    <desc>Created with sketchtool.</desc>
    <defs>
        <polygon id="path-1" points="0.00627615063 0.0140167364 45.7462343 0.0140167364 45.7462343 45.7601464 0.00627615063 45.7601464"></polygon>
    </defs>
    <g id="Booking-tool" stroke="none" stroke-width="1" fill="none" fill-rule="evenodd">
        <g id="Setting" transform="translate(-50.000000, -156.000000)">
            <g id="Group-3" transform="translate(50.000000, 156.000000)">
                <g id="Group">
                    <g id="dashbord-icon">
                        <g id="Group-4">
                            <mask id="mask-2" fill="white">
                                <use xlink:href="#path-1"></use>
                            </mask>
                            <g id="Clip-2"></g>
                            <path d="M26.7782427,7.26642259 C32.1338912,7.26642259 37.0432008,9.49790795 40.6137029,12.9567992 L45.7462343,7.82426778 C40.948431,3.02656904 34.2538703,0.0140167364 26.7782427,0.0140167364 C19.4142259,0.0140167364 12.7196653,3.02656904 7.81035565,7.82437238 L12.942887,12.9569038 C16.5132845,9.38640167 21.4225941,7.26642259 26.7782427,7.26642259" id="Fill-1" fill="#656565" mask="url(#mask-2)"></path>
                            <path d="M12.9427824,12.9567992 L7.81035565,7.82426778 C3.0125523,12.733682 0,19.4282427 0,26.7922594 C0,34.1562762 3.0125523,40.8508368 7.81035565,45.7601464 L12.942887,40.6276151 C9.37248954,37.0572176 7.25251046,32.1478033 7.25251046,26.7921548 C7.25240586,21.4366109 9.37238494,16.5271967 12.9427824,12.9567992" id="Fill-3" fill="#24272A" mask="url(#mask-2)"></path>
                        </g>
                        <path d="M45.7461297,7.82426778 L40.6137029,12.9567992 C44.1841004,16.5271967 46.3040795,21.4366109 46.3040795,26.7922594 C46.3040795,32.1479079 44.0725941,37.0572176 40.6137029,40.6277197 L45.7462343,45.760251 C50.5439331,40.9623431 53.5564854,34.2677824 53.5564854,26.7922594 C53.5564854,19.4282427 50.5439331,12.733682 45.7461297,7.82426778" id="Fill-5" fill="#F5333F"></path>
                        <path d="M40.6137029,12.9567992 L35.7043933,17.8661088 C33.3612971,15.6346234 30.2371339,14.1841004 26.7783473,14.1841004 C23.3195607,14.1841004 20.0837866,15.6346234 17.8523013,17.8661088 L12.9427824,12.9567992 C16.5132845,9.38640167 21.4225941,7.26642259 26.7782427,7.26642259 C32.1338912,7.26642259 37.0432008,9.38640167 40.6137029,12.9567992" id="Fill-6" fill="#9B9B9B"></path>
                        <path d="M17.8521967,35.7183054 L12.942887,40.6276151 C9.37248954,37.0572176 7.25251046,32.1478033 7.25251046,26.7921548 C7.25251046,21.4365063 9.48399582,16.5271967 12.942887,12.9566946 L17.8521967,17.8660042 C15.6207113,20.0974895 14.1701883,23.3332636 14.1701883,26.7920502 C14.0585774,30.251046 15.5091004,33.4868201 17.8521967,35.7183054" id="Fill-7" fill="#353535"></path>
                        <path d="M46.3040795,26.7922594 C46.3040795,32.1479079 44.0725941,37.0572176 40.6137029,40.6277197 L35.7042887,35.7183054 C37.9357741,33.3752092 39.3862971,30.251046 39.3862971,26.7922594 C39.3862971,23.3334728 37.9357741,20.0976987 35.7042887,17.8662134 L40.6135983,12.9569038 C44.1841004,16.5271967 46.3040795,21.4366109 46.3040795,26.7922594" id="Fill-8" fill="#E15C57"></path>
                        <path d="M43.9609833,16.1924686 L29.4560669,27.2384937 C29.2329498,28.5774059 28.1171548,29.4699791 26.7782427,29.4699791 C25.2162134,29.4699791 23.9888075,28.2426778 23.9888075,26.6805439 C23.9888075,25.11841 25.2161088,23.8911088 26.7782427,23.8911088 C27.1129707,23.8911088 27.3360879,23.8911088 27.6708159,24.0027197 L43.9609833,16.1924686" id="Fill-9" fill="#35505E"></path>
                        <path d="M36.3737448,50 L17.1827406,50 C14.8396444,50 12.942887,48.1032427 12.942887,45.7601464 C12.942887,43.4170502 14.8396444,41.5202929 17.1827406,41.5202929 L36.2622385,41.5202929 C38.6053347,41.5202929 40.5020921,43.4170502 40.5020921,45.7601464 C40.6137029,48.1032427 38.716841,50 36.3737448,50" id="Fill-10" fill="#243981"></path>
                        <path d="M26.7782427,25.6767782 C27.3944561,25.6767782 27.8940377,26.1763598 27.8940377,26.7925732 C27.8940377,27.4087866 27.3944561,27.9083682 26.7782427,27.9083682 C26.1620293,27.9083682 25.6624477,27.4087866 25.6624477,26.7925732 C25.6624477,26.1763598 26.1620293,25.6767782 26.7782427,25.6767782" id="Fill-11" fill="#FFFFFE"></path>
                    </g>
                </g>
            </g>
        </g>
    </g>
</svg>