<?xml version="1.0" encoding="UTF-8"?>
<svg width="50px" height="51px" viewBox="0 0 50 51" version="1.1" xmlns="http://www.w3.org/2000/svg" xmlns:xlink="http://www.w3.org/1999/xlink">
    <!-- Generator: sketchtool 52.2 (67145) - http://www.bohemiancoding.com/sketch -->
    <title>BD01E442-45EB-4023-B5F8-84D793BBBADE</title>
    <desc>Created with sketchtool.</desc>
    <g id="Booking-tool" stroke="none" stroke-width="1" fill="none" fill-rule="evenodd">
        <g id="Setting" transform="translate(-52.000000, -514.000000)">
            <g id="Group-21" transform="translate(0.000000, 424.000000)">
                <g id="Group-13" transform="translate(52.000000, 91.000000)">
                    <g id="notification-icon">
                        <path d="M39.9976744,17.4406977 C35.3744186,17.4406977 31.6267442,13.694186 31.6267442,9.06976744 C31.6267442,8.42906977 31.7046512,7.80697674 31.8453488,7.20697674 L3.93837209,7.20697674 C1.7627907,7.20697674 0,8.9744186 0,11.15 L0,46.0604651 C0,48.2372093 1.7627907,49.9988372 3.93837209,49.9988372 L38.8488372,49.9988372 C41.0244186,49.9988372 42.7918605,48.2372093 42.7918605,46.0604651 L42.7918605,16.9546512 C41.9151163,17.2639535 40.9790698,17.4406977 39.9976744,17.4406977 Z" id="Fill-1" fill="#FFFFFF"></path>
                        <path d="M48.3744186,9.06976744 C48.3744186,13.694186 44.622093,17.4406977 39.9976744,17.4406977 C35.3744186,17.4406977 31.6267442,13.694186 31.6267442,9.06976744 C31.6267442,4.44534884 35.3744186,0.698837209 39.9976744,0.698837209 C44.622093,0.698837209 48.3744186,4.44534884 48.3744186,9.06976744 Z" id="Fill-2" fill="#F5333F"></path>
                        <path d="M48.3744186,9.06976744 C48.3744186,13.694186 44.622093,17.4406977 39.9976744,17.4406977 C35.3744186,17.4406977 31.6267442,13.694186 31.6267442,9.06976744 C31.6267442,4.44534884 35.3744186,0.698837209 39.9976744,0.698837209 C44.622093,0.698837209 48.3744186,4.44534884 48.3744186,9.06976744 Z" id="Stroke-3" stroke="#FFFFFF" stroke-width="1.6" stroke-linecap="round"></path>
                    </g>
                </g>
            </g>
        </g>
    </g>
</svg>