<?xml version="1.0" encoding="UTF-8"?>
<svg width="20px" height="20px" viewBox="0 0 20 20" version="1.1" xmlns="http://www.w3.org/2000/svg" xmlns:xlink="http://www.w3.org/1999/xlink">
    <!-- Generator: sketchtool 52.2 (67145) - http://www.bohemiancoding.com/sketch -->
    <title>CF022090-B7C2-4A9B-A965-C1E21F0FE05B</title>
    <desc>Created with sketchtool.</desc>
    <g id="Booking-tool" stroke="none" stroke-width="1" fill="none" fill-rule="evenodd">
        <g id="Booking-step-1" transform="translate(-480.000000, -519.000000)">
            <g id="Group-6" transform="translate(360.000000, 0.000000)">
                <g id="Group-5" transform="translate(62.000000, 389.000000)">
                    <g id="Group-15" transform="translate(58.000000, 40.000000)">
                        <g id="Group-4" transform="translate(0.000000, 56.000000)">
                            <g id="Group-2" transform="translate(0.000000, 32.000000)">
                                <g id="open-time" transform="translate(0.000000, 2.000000)">
                                    <path d="M19.7438298,10.127234 C19.7438298,15.5795745 15.3242553,19.9991489 9.87191489,19.9991489 C4.42,19.9991489 0,15.5795745 0,10.127234 C0,4.67531915 4.42,0.255319149 9.87191489,0.255319149 C15.3242553,0.255319149 19.7438298,4.67531915 19.7438298,10.127234 Z" id="Fill-1" fill="#F5333F"></path>
                                    <path d="M0,10.127234 C0,10.2285106 0.00510638298,10.3268085 0.0085106383,10.426383 L9.87191489,10.426383 L9.87191489,0.255319149 C4.42,0.255319149 0,4.67531915 0,10.127234 Z" id="Fill-2" fill="#EFEFEF"></path>
                                    <path d="M9.87191489,1.95744681 C9.68425532,1.95744681 9.53106383,2.11021277 9.53106383,2.29829787 L9.53106383,10.127234 L4.42468085,10.127234 C4.23702128,10.127234 4.08595745,10.2804255 4.08595745,10.4680851 C4.08595745,10.6557447 4.23702128,10.8089362 4.42468085,10.8089362 L9.87191489,10.8089362 C10.06,10.8089362 10.212766,10.6557447 10.212766,10.4680851 L10.212766,2.29829787 C10.212766,2.11021277 10.06,1.95744681 9.87191489,1.95744681 Z" id="Fill-4" fill="#353535"></path>
                                </g>
                            </g>
                        </g>
                    </g>
                </g>
            </g>
        </g>
    </g>
</svg>