<?xml version="1.0" encoding="UTF-8"?>
<svg width="50px" height="50px" viewBox="0 0 50 50" version="1.1" xmlns="http://www.w3.org/2000/svg" xmlns:xlink="http://www.w3.org/1999/xlink">
    <!-- Generator: sketchtool 52.2 (67145) - http://www.bohemiancoding.com/sketch -->
    <title>37720AD6-8728-436E-84F5-500D7E5F344E</title>
    <desc>Created with sketchtool.</desc>
    <defs>
        <polygon id="path-1" points="0.005859375 0 50 0 50 50 0.005859375 50"></polygon>
    </defs>
    <g id="Booking-tool" stroke="none" stroke-width="1" fill="none" fill-rule="evenodd">
        <g id="Dashboards" transform="translate(-50.000000, -605.000000)">
            <g id="Group-32" transform="translate(50.000000, 246.000000)">
                <g id="Group-28" transform="translate(0.000000, 178.000000)">
                    <g id="Group-27-Copy" transform="translate(0.000000, 181.000000)">
                        <g id="Group-2-Copy-5">
                            <g id="Group-Copy">
                                <g id="setting-icon">
                                    <g id="Group-3">
                                        <mask id="mask-2" fill="white">
                                            <use xlink:href="#path-1"></use>
                                        </mask>
                                        <g id="Clip-2"></g>
                                        <path d="M45.7077148,19.0295898 C45.2625,17.4834961 44.6441406,15.9927734 43.8628906,14.58125 L45.462793,10.1074219 L39.8925781,4.53720703 L35.41875,6.13671875 C34.0072266,5.35585937 32.5165039,4.7375 30.9700195,4.29228516 L28.9390625,0 L21.0609375,0 L19.0299805,4.29228516 C17.4834961,4.7375 15.9927734,5.35585937 14.58125,6.13710937 L10.1074219,4.53720703 L4.53720703,10.1074219 L6.13710938,14.58125 C5.35585938,15.9927734 4.7375,17.4834961 4.29228516,19.0295898 L0,21.0609375 L0,28.9390625 L4.29228516,30.9700195 C4.7375,32.5165039 5.35585938,34.0072266 6.13710938,35.41875 L4.53720703,39.8925781 L10.1074219,45.462793 L14.58125,43.8628906 C15.9927734,44.6441406 17.4838867,45.2625 19.0299805,45.7077148 L21.0609375,50 L28.9390625,50 L30.9700195,45.7077148 C32.5161133,45.2625 34.0072266,44.6441406 35.41875,43.8628906 L39.8925781,45.462793 L45.462793,39.8925781 L43.8628906,35.41875 C44.6441406,34.0072266 45.2625,32.5165039 45.7077148,30.9700195 L50,28.9390625 L50,21.0609375 L45.7077148,19.0295898 Z M37.7575195,25 C37.7575195,32.034668 32.034668,37.7575195 25,37.7575195 C17.965332,37.7575195 12.2424805,32.034668 12.2424805,25 C12.2424805,17.965332 17.965332,12.2424805 25,12.2424805 C32.034668,12.2424805 37.7575195,17.965332 37.7575195,25 Z" id="Fill-1" fill="#000000" mask="url(#mask-2)"></path>
                                    </g>
                                    <path d="M25,15.172168 C19.5808594,15.172168 15.172168,19.5808594 15.172168,25 C15.172168,30.4191406 19.5808594,34.827832 25,34.827832 C30.4191406,34.827832 34.827832,30.4191406 34.827832,25 C34.827832,19.5808594 30.4191406,15.172168 25,15.172168 Z" id="Fill-4" fill="#F5333F"></path>
                                </g>
                            </g>
                        </g>
                    </g>
                </g>
            </g>
        </g>
    </g>
</svg>