<?xml version="1.0" encoding="UTF-8"?>
<svg width="20px" height="20px" viewBox="0 0 20 20" version="1.1" xmlns="http://www.w3.org/2000/svg" xmlns:xlink="http://www.w3.org/1999/xlink">
    <!-- Generator: sketchtool 52.2 (67145) - http://www.bohemiancoding.com/sketch -->
    <title>0320DF2C-3016-49C4-AE6F-7A6D45594AAE</title>
    <desc>Created with sketchtool.</desc>
    <g id="Booking-tool" stroke="none" stroke-width="1" fill="none" fill-rule="evenodd">
        <g id="Dashboards" transform="translate(-1464.000000, -348.000000)" fill="#FF1563" fill-rule="nonzero">
            <g id="Group-26" transform="translate(400.000000, 288.000000)">
                <g id="timelapse" transform="translate(1064.000000, 60.000000)">
                    <path d="M14.2,5.8 C13.1,4.6 11.5,4 10,4 L10,10 L5.8,14.2 C8.1,16.5 11.9,16.5 14.3,14.2 C16.6,11.9 16.6,8.1 14.2,5.8 Z M10,0 C4.5,0 0,4.5 0,10 C0,15.5 4.5,20 10,20 C15.5,20 20,15.5 20,10 C20,4.5 15.5,0 10,0 Z M10,18 C5.6,18 2,14.4 2,10 C2,5.6 5.6,2 10,2 C14.4,2 18,5.6 18,10 C18,14.4 14.4,18 10,18 Z" id="Shape"></path>
                </g>
            </g>
        </g>
    </g>
</svg>