<?xml version="1.0" encoding="UTF-8"?>
<svg width="50px" height="46px" viewBox="0 0 50 46" version="1.1" xmlns="http://www.w3.org/2000/svg" xmlns:xlink="http://www.w3.org/1999/xlink">
    <!-- Generator: sketchtool 52.2 (67145) - http://www.bohemiancoding.com/sketch -->
    <title>792E22E4-392C-4F1B-A24E-00AEF0F19400</title>
    <desc>Created with sketchtool.</desc>
    <defs>
        <polygon id="path-1" points="0.005859375 0.04296875 50 0.04296875 50 42.6699219 0.005859375 42.6699219"></polygon>
    </defs>
    <g id="Booking-tool" stroke="none" stroke-width="1" fill="none" fill-rule="evenodd">
        <g id="Setting" transform="translate(-50.000000, -246.000000)">
            <g id="Group-22" transform="translate(50.000000, 246.000000)">
                <g id="bookings-icon">
                    <g id="Group-5" transform="translate(0.000000, 3.027344)">
                        <mask id="mask-2" fill="white">
                            <use xlink:href="#path-1"></use>
                        </mask>
                        <g id="Clip-2"></g>
                        <path d="M2.5390625,42.4804687 C1.246875,42.4804687 0.1953125,41.4289062 0.1953125,40.1367187 L0.1953125,10.0585938 L49.8046875,10.0585938 L49.8046875,40.1367187 C49.8046875,41.4289062 48.753125,42.4804687 47.4609375,42.4804687 L2.5390625,42.4804687" id="Fill-1" fill="#FFFFFE" mask="url(#mask-2)"></path>
                        <path d="M0,9.86328125 L0,40.1367187 C0,41.5351562 1.140625,42.6757812 2.5390625,42.6757812 L47.4609375,42.6757812 C48.859375,42.6757812 50,41.5351562 50,40.1367187 L50,9.86328125 L0,9.86328125 Z M0.390625,10.2539062 L49.609375,10.2539062 L49.609375,40.1367187 C49.609375,41.3210937 48.6453125,42.2851562 47.4609375,42.2851562 L2.5390625,42.2851562 C1.3546875,42.2851562 0.390625,41.3210937 0.390625,40.1367187 L0.390625,10.2539062 Z" id="Fill-3" fill="#A6BAC0" mask="url(#mask-2)"></path>
                        <path d="M0,10.5273437 L0,2.58984375 C0,1.19140625 1.140625,0.04296875 2.5390625,0.04296875 L47.453125,0.04296875 C48.8515625,0.04296875 49.9921875,1.18359375 49.9921875,2.58203125 L49.9921875,10.5195312 L0,10.5195312 L0,10.5273437" id="Fill-4" fill="#F5333F" mask="url(#mask-2)"></path>
                    </g>
                    <polygon id="Fill-6" fill="#24272A" points="7.7890625 7.8125 10.0078125 7.8125 10.0078125 0.0546875 7.7890625 0.0546875"></polygon>
                    <polygon id="Fill-7" fill="#24272A" points="39.78125 7.8125 42 7.8125 42 0.0546875 39.78125 0.0546875"></polygon>
                    <polygon id="Fill-8" fill="#A6BAC0" points="6.94765625 45.5265625 7.33828125 45.5265625 7.33828125 13.6265625 6.94765625 13.6265625"></polygon>
                    <polygon id="Fill-9" fill="#A6BAC0" points="14.09375 45.5265625 14.484375 45.5265625 14.484375 13.6265625 14.09375 13.6265625"></polygon>
                    <polygon id="Fill-10" fill="#A6BAC0" points="21.234375 45.5265625 21.625 45.5265625 21.625 13.6265625 21.234375 13.6265625"></polygon>
                    <g id="Group-18" transform="translate(0.000000, 13.574219)" fill="#A6BAC0">
                        <polygon id="Fill-11" points="28.375 31.9523437 28.765625 31.9523437 28.765625 0.05234375 28.375 0.05234375"></polygon>
                        <polygon id="Fill-13" points="0.005859375 5.53125 49.5703125 5.53125 49.5703125 5.140625 0.005859375 5.140625"></polygon>
                        <polygon id="Fill-14" points="0.005859375 10.8171875 49.5703125 10.8171875 49.5703125 10.4265625 0.005859375 10.4265625"></polygon>
                        <polygon id="Fill-15" points="0.005859375 16.1070313 49.5703125 16.1070313 49.5703125 15.7164063 0.005859375 15.7164063"></polygon>
                        <polygon id="Fill-16" points="0.005859375 21.390625 49.5703125 21.390625 49.5703125 21 0.005859375 21"></polygon>
                        <polygon id="Fill-17" points="0.005859375 26.6765625 49.5703125 26.6765625 49.5703125 26.2859375 0.005859375 26.2859375"></polygon>
                    </g>
                    <polygon id="Fill-19" fill="#A6BAC0" points="35.515625 45.5265625 35.90625 45.5265625 35.90625 13.6265625 35.515625 13.6265625"></polygon>
                    <polygon id="Fill-20" fill="#A6BAC0" points="42.6617187 45.5265625 43.0523437 45.5265625 43.0523437 13.6265625 42.6617187 13.6265625"></polygon>
                    <path d="M25,18.78125 C30.915918,18.78125 35.7117188,23.5770508 35.7117188,29.4929688 C35.7117188,35.4088867 30.915918,40.2046875 25,40.2046875 C19.084082,40.2046875 14.2882813,35.4088867 14.2882813,29.4929688 C14.2882813,23.5770508 19.084082,18.78125 25,18.78125" id="Fill-21" fill="#21C889"></path>
                    <polyline id="Fill-22" fill="#FFFFFF" points="24.1101563 33.8867188 19.5039062 30.0367187 20.9539063 28.3015625 23.8640625 30.7335937 28.7945313 25.0992187 30.4960938 26.5890625 24.1101563 33.8867188"></polyline>
                </g>
            </g>
        </g>
    </g>
</svg>