<?xml version="1.0" encoding="UTF-8"?>
<svg width="30px" height="30px" viewBox="0 0 30 30" version="1.1" xmlns="http://www.w3.org/2000/svg" xmlns:xlink="http://www.w3.org/1999/xlink">
    <!-- Generator: sketchtool 52.2 (67145) - http://www.bohemiancoding.com/sketch -->
    <title>4CAD4B76-72A3-4424-B30B-F99E7E89C0C6</title>
    <desc>Created with sketchtool.</desc>
    <g id="Booking-tool" stroke="none" stroke-width="1" fill="none" fill-rule="evenodd">
        <g id="Setting" transform="translate(-1143.000000, -1554.000000)" fill="#FFFFFF">
            <g id="Group-35" transform="translate(382.000000, 1446.000000)">
                <g id="Group-29-Copy-3" transform="translate(761.000000, 92.000000)">
                    <path d="M15,16 C6.716375,16 0.000500000002,22.71575 0.000500000002,30.9995 C0.000500000002,39.283125 6.716375,46 15,46 C23.28375,46 30,39.283625 30,30.9995 C30,22.71525 23.28425,16 15,16 Z M16.035625,32.8335 C16.035125,32.873 16.02925,32.9125 16.024,32.952125 C16.02,32.981375 16.018125,33.011625 16.01125,33.041 C16.004375,33.07125 15.993125,33.101 15.983375,33.13125 C15.97175,33.167875 15.9605,33.2045 15.945375,33.23925 C15.942375,33.245125 15.941375,33.251375 15.939,33.25725 C15.9165,33.305625 15.890125,33.351 15.861375,33.3935 C15.859375,33.396375 15.857375,33.398875 15.8555,33.401375 C15.82275,33.449625 15.785125,33.493125 15.746125,33.534125 C15.735375,33.545375 15.724125,33.555125 15.712875,33.565875 C15.67825,33.598625 15.642125,33.628875 15.6035,33.65625 C15.591375,33.665 15.580125,33.67375 15.567375,33.682125 C15.518125,33.71475 15.466375,33.743125 15.412125,33.7665 C15.400375,33.771875 15.38825,33.774875 15.3765,33.77975 C15.330625,33.797375 15.284625,33.812 15.236875,33.82275 C15.21975,33.827125 15.202625,33.8305 15.1855,33.833875 C15.124,33.845125 15.062,33.8525 14.9995,33.8525 C14.986875,33.8525 14.973625,33.848625 14.961,33.848125 C14.900875,33.846125 14.841375,33.84125 14.78375,33.829 C14.766125,33.825125 14.7485,33.817375 14.7305,33.8125 C14.67725,33.79775 14.625,33.78175 14.57525,33.75975 C14.569375,33.75675 14.5635,33.75625 14.557625,33.753375 L8.806125,31.0405 C8.288125,30.796375 8.065875,30.178125 8.310125,29.659625 C8.55475,29.142 9.172875,28.919875 9.690875,29.164 L13.962875,31.178125 L13.962875,22.225 C13.962875,21.65175 14.42725,21.1875 15,21.1875 C15.57275,21.1875 16.037625,21.65175 16.037625,22.225 L16.037625,32.814875 C16.037625,32.82125 16.035625,32.827625 16.035625,32.8335 Z" id="clock-icon"></path>
                </g>
            </g>
        </g>
    </g>
</svg>