<?xml version="1.0" encoding="UTF-8"?>
<svg width="1200px" height="871px" viewBox="0 0 1200 871" version="1.1" xmlns="http://www.w3.org/2000/svg" xmlns:xlink="http://www.w3.org/1999/xlink">
    <!-- Generator: sketchtool 52.2 (67145) - http://www.bohemiancoding.com/sketch -->
    <title>0E7E3280-B9FC-4979-B8CF-53559AE3ADCD</title>
    <desc>Created with sketchtool.</desc>
    <g id="Booking-tool" stroke="none" stroke-width="1" fill="none" fill-rule="evenodd">
        <g id="Appointment-edit-reschedule-2" transform="translate(-542.000000, -553.000000)" fill="#F2F2F2">
            <g id="Group-5" transform="translate(497.000000, 553.000000)">
                <g id="Group-6">
                    <path d="M73,0.000353491786 L98.5189265,0.000675660747 C146.055427,5.09321616 181.10197,7.63948641 203.658555,7.63948641 C226.21514,7.63948641 261.716685,5.09321616 310.163192,0.000675660747 L594.669525,0.00067548463 C689.603428,5.09321613 751.140697,7.63948643 779.281333,7.63948641 C807.42197,7.63948638 820.943854,5.09321599 819.846987,0.000675257207 L1217,-0.0001162957 C1232.46397,-0.000140856643 1245.00002,12.5358662 1245.00004,27.9998392 C1245.00004,27.9998928 1245.00004,27.9999464 1245.00004,28 L1244.99951,118.478418 L1143.61053,118.478418 L1244.99951,142.27155 L1244.99951,315.215331 L1224.1272,333.716233 L1244.99951,349.093491 L1244.99951,476.510072 L1215.99973,476.510072 L1244.9994,493.289246 L1244.9994,739.430532 L1160.79003,758.089149 L1244.99971,781.150654 L1245.00014,843 C1245.00018,858.463973 1232.4642,871.00004 1217.00022,871.000089 C1217.00015,871.000089 1217.00007,871.000089 1217,871.000089 L1038.38966,870.999002 C992.68438,862.830204 955.750384,858.745706 927.587675,858.745508 C899.424967,858.74531 864.842154,862.829305 823.839237,870.997493 L491.214403,870.998278 C382.19345,870.994103 307.744267,866.909846 267.866853,858.745508 C227.98944,850.581169 199.45475,854.665739 182.262784,870.999218 L73,871.000365 C57.536027,871.000453 44.9999286,858.464498 44.9998405,843.000525 C44.9998405,843.00035 44.9998405,843.000175 44.9998405,843 L45.0008223,807.953525 C50.1516228,803.571566 52.7270231,800.220112 52.7270231,797.899164 C52.7270231,795.578215 50.1516228,789.729599 45.0008223,780.353317 L45.0008223,719.120284 L68.4547923,701.351007 L45.0008223,688.541005 L45.0008223,450.534954 L79.4378677,415.615377 L47.534534,351.760442 L45.0008223,176.381027 C96.9789581,174.364473 122.968026,173.356197 122.968026,173.356197 C122.968026,173.356197 96.9789581,167.132387 45.0008223,154.684769 L44.9996465,28 C44.9995643,12.536027 57.5355247,-6.66412756e-05 72.9994977,-0.00014885075 C72.9996651,-0.00014885164 72.9998326,-0.000148851028 73,-0.000148848914 L73,0.000353491786 Z" id="edit-schedule-shape"></path>
                </g>
            </g>
        </g>
    </g>
</svg>