<?xml version="1.0" encoding="UTF-8"?>
<svg width="1105px" height="75px" viewBox="0 0 1105 75" version="1.1" xmlns="http://www.w3.org/2000/svg" xmlns:xlink="http://www.w3.org/1999/xlink">
    <!-- Generator: sketchtool 52.2 (67145) - http://www.bohemiancoding.com/sketch -->
    <title>AF11D0AA-D2EA-4162-BE79-6D0822DF8DCD</title>
    <desc>Created with sketchtool.</desc>
    <g id="Booking-tool" stroke="none" stroke-width="1" fill="none" fill-rule="evenodd">
        <g id="Appointment-edit-reschedule-5" transform="translate(-571.000000, -950.000000)" fill="#FFFFFF">
            <g id="Group-6" transform="translate(514.000000, 543.000000)">
                <g id="Group-2" transform="translate(0.000000, 254.000000)">
                    <g id="Group-16" transform="translate(57.000000, 153.000000)">
                        <path d="M13.319549,2.916488e-07 L49.2812998,1.13731539e-06 C93.0545346,0.438509944 125.326589,0.657764347 146.097464,0.657764347 C166.868338,0.657764347 199.559375,0.438509944 244.170574,1.13731539e-06 L506.153731,1.12215031e-06 L676.150596,0.657764347 L708.298397,2.54883648 L779.249327,6.67187507e-07 L1094.79811,1.75859327e-13 C1100.43235,-1.19124964e-08 1104.99981,4.56745714 1104.99981,10.2017011 C1104.99981,10.2017641 1104.99981,10.2018272 1104.99981,10.2018902 L1085.77988,10.933994 L1104.99981,12.2506708 L1104.99981,27.1425251 L1085.77988,28.7356019 L1104.99981,30.0597079 L1104.99981,41.0313031 L1039.27631,41.0313031 L1104.99971,42.4761253 L1104.99971,63.6708751 L1075.06526,66.1138447 L1105,67.263314 C1105,71.5361673 1101.53617,74.9999992 1097.26331,74.9999992 L914.746404,74.9999814 L816.097351,70.4917488 L717.181036,74.9998515 L410.888718,74.999919 L204.965463,69.9999998 L126.395506,75 L5.42874259,75 C2.43053085,75 3.91830043e-15,72.5694691 8.8817842e-16,69.5712574 C4.74303317,69.1939354 7.11454975,68.9053482 7.11454975,68.7054958 C7.11454975,68.5056434 4.74303317,68.0020304 5.63871463e-15,67.1946569 L1.71324435e-14,61.9219989 L21.5972173,60.3919208 L2.0258588e-14,59.2888764 L4.45882288e-14,38.7946359 L31.7108085,35.7877787 L2.33312836,30.2893538 L1.61403758e-15,15.1877718 C47.8632443,15.0141303 71.7948664,14.9273096 71.7948664,14.9273096 C71.7948664,14.9273096 47.8632443,14.3913894 7.09227202e-14,13.319549 C3.09517796e-14,5.96336538 5.96336509,2.91648836e-07 13.3195487,2.91648796e-07 Z" id="friend-shape-reschedule"></path>
                    </g>
                </g>
            </g>
        </g>
    </g>
</svg>