<?xml version="1.0" encoding="UTF-8"?>
<svg width="1200px" height="741px" viewBox="0 0 1200 741" version="1.1" xmlns="http://www.w3.org/2000/svg" xmlns:xlink="http://www.w3.org/1999/xlink">
    <!-- Generator: sketchtool 52.2 (67145) - http://www.bohemiancoding.com/sketch -->
    <title>28008F97-CC7E-4756-831C-99393C8CC267</title>
    <desc>Created with sketchtool.</desc>
    <g id="Booking-tool" stroke="none" stroke-width="1" fill="none" fill-rule="evenodd">
        <g id="Appointment-edit-reschedule-5" transform="translate(-514.000000, -543.000000)" fill="#F2F2F2">
            <g id="Group-6" transform="translate(514.000000, 543.000000)">
                <path d="M28,0.000300731818 L53.5189265,0.00057481586 C101.055427,4.33303464 136.10197,6.49926455 158.658555,6.49926455 C181.21514,6.49926455 216.716685,4.33303464 265.163192,0.00057481586 L549.669525,0.000574666029 C644.603428,4.33303462 706.140697,6.49926458 734.281333,6.49926455 C762.42197,6.49926453 775.943854,4.3330345 774.846987,0.000574472549 L1172,-0.000136698453 C1187.46397,-0.000157593584 1200.00002,12.5358525 1200.00004,27.9998255 C1200.00004,27.9998836 1200.00004,27.9999418 1200.00004,28 L1199.99951,100.795072 L1098.61053,100.795072 L1199.99951,121.03699 L1199.99951,268.168267 L1179.1272,283.90784 L1199.99951,296.989985 L1199.99951,405.389166 L1170.99973,405.389166 L1199.9994,419.663986 L1199.9994,629.067766 L1115.79003,644.941515 L1199.99971,664.561004 L1200.00012,713 C1200.00017,728.463973 1187.46419,741.000047 1172.00022,741.000105 C1172.00015,741.000105 1172.00007,741.000105 1172,741.000105 L993.389665,740.999151 C947.68438,734.049576 910.750384,730.574705 882.587675,730.574536 C854.424967,730.574368 819.842154,734.048812 778.839237,740.997868 L446.214403,740.998535 C337.19345,740.994983 262.744267,737.520317 222.866853,730.574536 C182.98944,723.628756 154.45475,727.103688 137.262784,740.999335 L28,741.000429 C12.536027,741.000504 -6.07537531e-05,728.464538 -0.000135700683,713.000565 C-0.000135701596,713.000377 -0.000135700609,713.000188 -0.000135697721,713 L0.000822334173,687.363447 C5.15162282,683.635512 7.72702307,680.784275 7.72702307,678.809736 C7.72702307,676.835198 5.15162282,671.85951 0.000822334173,663.882673 L0.000822334173,611.788898 L23.4547923,596.671752 L0.000822334173,585.773691 L0.000822334173,383.290931 L34.4378677,353.583231 L2.53453405,299.258883 L0.000822334173,150.0555 C51.9789581,148.339925 77.968026,147.482137 77.968026,147.482137 C77.968026,147.482137 51.9789581,142.187255 0.000822334173,131.59749 L-0.000300727777,28 C-0.000397359965,12.536027 12.5355513,-7.83328939e-05 27.9995243,-0.000174965082 C27.9996829,-0.000174966073 27.9998414,-0.000174965717 28,-0.000174964014 L28,0.000300731818 Z" id="reschedule-shape"></path>
            </g>
        </g>
    </g>
</svg>