<?xml version="1.0" encoding="UTF-8"?>
<svg width="26px" height="25px" viewBox="0 0 26 25" version="1.1" xmlns="http://www.w3.org/2000/svg" xmlns:xlink="http://www.w3.org/1999/xlink">
    <!-- Generator: sketchtool 52.2 (67145) - http://www.bohemiancoding.com/sketch -->
    <title>6327FC29-F235-498F-85D4-1A4CA2789B50</title>
    <desc>Created with sketchtool.</desc>
    <defs>
        <polygon id="path-1" points="0.0709090909 0.925259432 24.0157273 0.925259432 24.0157273 24.9988095 0.0709090909 24.9988095"></polygon>
    </defs>
    <g id="Booking-tool" stroke="none" stroke-width="1" fill="none" fill-rule="evenodd">
        <g id="Setting" transform="translate(-830.000000, -1299.000000)">
            <g id="location-settings-icon" transform="translate(830.000000, 1299.000000)">
                <path d="M16.6423636,11.625 C17.1682727,11.2714286 17.7875455,11.1178571 18.3914545,11.1880952 L25.3074545,4.22142857 L21.4393636,0.320238095 L14.5186364,7.28571429 C14.5930909,7.9047619 14.4359091,8.53690476 14.0707273,9.07619048 L16.6423636,11.625 Z" id="Fill-1" fill="#F5333F"></path>
                <g id="Group-5">
                    <mask id="mask-2" fill="white">
                        <use xlink:href="#path-1"></use>
                    </mask>
                    <g id="Clip-3"></g>
                    <polygon id="Fill-2" fill="#F5333F" mask="url(#mask-2)" points="4.57954545 20.1119048 4.32545455 19.8559524 3.01481818 20.925 0.808363636 24.4321429 1.37090909 24.9988095 4.85609091 22.7761905 5.91381818 21.4607143 5.66445455 21.2 10.0643636 16.772619 8.97 15.6845238"></polygon>
                    <path d="M10.595,7.825 C11.1031818,5.99285714 10.6410909,3.95238095 9.21463636,2.51547619 C7.79763636,1.08690476 5.78854545,0.622619048 3.98390909,1.11547619 L7.04009091,4.19404762 L6.24118182,7.20714286 L3.24527273,8.01666667 L0.189090909,4.93809524 C-0.300181818,6.75595238 0.161909091,8.77380952 1.57890909,10.2059524 C3.06563636,11.7035714 5.20709091,12.1404762 7.07672727,11.527381 L7.09563636,11.5452381 L19.6713636,24.2083333 C20.1641818,24.7107143 20.8200909,24.9619048 21.4712727,24.9619048 C22.1224545,24.9619048 22.7736364,24.7107143 23.2711818,24.2083333 C24.2639091,23.2130952 24.2639091,21.5857143 23.2711818,20.5809524 L10.595,7.825 Z M21.6887273,23.7809524 C21.1521818,23.7809524 20.7184545,23.3392857 20.7184545,22.8 C20.7184545,22.2559524 21.1521818,21.8178571 21.6887273,21.8178571 C22.2288182,21.8178571 22.6625455,22.2559524 22.6625455,22.8 C22.6672727,23.3392857 22.2288182,23.7809524 21.6887273,23.7809524 Z" id="Fill-4" fill="#F5333F" mask="url(#mask-2)"></path>
                </g>
            </g>
        </g>
    </g>
</svg>