<?xml version="1.0" encoding="UTF-8"?>
<svg width="262px" height="75px" viewBox="0 0 262 75" version="1.1" xmlns="http://www.w3.org/2000/svg" xmlns:xlink="http://www.w3.org/1999/xlink">
    <!-- Generator: sketchtool 52.2 (67145) - http://www.bohemiancoding.com/sketch -->
    <title>80004F89-2D51-43E7-A028-93499EF86E7B</title>
    <desc>Created with sketchtool.</desc>
    <g id="Booking-tool" stroke="none" stroke-width="1" fill="none" fill-rule="evenodd">
        <g id="Setting" transform="translate(-423.000000, -1530.000000)" fill="#24272A">
            <g id="Group-35" transform="translate(382.000000, 1446.000000)">
                <g id="Group-26" transform="translate(0.000000, 29.000000)">
                    <path d="M52.6847969,55.0000011 C63.0636091,55.4385099 70.7154447,55.6577643 75.6403036,55.6577643 C80.5651625,55.6577643 88.3163405,55.4385099 98.8938375,55.0000011 L161.011111,55.0000011 L201.31806,55.6577643 L208.940434,57.5488364 L225.763189,55.0000006 L292.79811,55 C298.432433,55 302.999955,59.5675216 302.999955,65.2018452 C302.999955,65.2018602 302.999955,65.2018752 302.999955,65.2018902 L298.442831,65.933994 L302.999955,67.2506707 L302.999955,82.142525 L298.442831,83.7356018 L302.999955,85.0597078 L302.999955,96.031303 L287.416646,96.031303 L302.999932,97.4761252 L302.999932,118.670875 L295.902351,121.113845 L303,122.263314 C303,126.536166 299.536169,129.999997 295.263317,129.999997 L257.890098,129.999981 L234.500005,125.491749 L211.046544,129.999851 L138.423388,129.999919 L89.5981459,125 L70.9688892,130 L46.4287426,130 C43.4305308,130 41,127.569469 41,124.571257 C42.1245925,124.193935 42.6868887,123.905348 42.6868887,123.705496 C42.6868887,123.505643 42.1245925,123.00203 41,122.194657 L41,116.921999 L46.1207882,115.391921 L41,114.288876 L41,93.7946359 L48.5187618,90.7877787 L41.5531942,85.2893538 L41,70.1877717 C52.3485701,70.0141302 58.0228552,69.9273095 58.0228552,69.9273095 C58.0228552,69.9273095 52.3485701,69.3913893 41,68.319549 L41,66.6847968 C41,60.2314623 46.2314612,55.0000011 52.6847957,55.0000011 Z" id="number-of-targets-shaoe"></path>
                </g>
            </g>
        </g>
    </g>
</svg>