<?xml version="1.0" encoding="UTF-8"?>
<svg width="46px" height="50px" viewBox="0 0 46 50" version="1.1" xmlns="http://www.w3.org/2000/svg" xmlns:xlink="http://www.w3.org/1999/xlink">
    <!-- Generator: sketchtool 52.2 (67145) - http://www.bohemiancoding.com/sketch -->
    <title>598BDEC6-5A69-4C54-8855-C3A22BF5CC97</title>
    <desc>Created with sketchtool.</desc>
    <defs>
        <polygon id="path-1" points="0.00597609562 0.0447211155 45.7923307 0.0447211155 45.7923307 45.9411355 0.00597609562 45.9411355"></polygon>
    </defs>
    <g id="Booking-tool" stroke="none" stroke-width="1" fill="none" fill-rule="evenodd">
        <g id="Setting" transform="translate(-50.000000, -334.000000)">
            <g id="Group-24" transform="translate(50.000000, 334.000000)">
                <g id="target-icon-">
                    <polyline id="Fill-1" fill="#24272A" points="22 27 15.0200784 45.8663641 13.5167834 50 6 50 8.6845141 42.5806353 14.3758238 27 22 27"></polyline>
                    <polyline id="Fill-2" fill="#24272A" points="40 50 32.4832166 50 30.9799216 45.8663641 24 27 31.6241762 27 37.3154859 42.5806353 40 50"></polyline>
                    <path d="M14.5564646,27 L22,27 L15.2903032,46 C13.088687,45.2528388 10.9919193,44.0786701 9,42.6909975 L14.5564646,27" id="Fill-3" fill="#353535"></path>
                    <g id="Group-7">
                        <mask id="mask-2" fill="white">
                            <use xlink:href="#path-1"></use>
                        </mask>
                        <g id="Clip-5"></g>
                        <path d="M37.0501992,42.7148406 C35.1768924,44.0678287 33.0954183,45.1085657 30.8057769,45.9411355 L24.1450199,27.4160359 L31.5342629,27.4160359 L37.0501992,42.7148406" id="Fill-4" fill="#353535" mask="url(#mask-2)"></path>
                        <path d="M22.8962151,0.0447211155 C35.5413347,0.0447211155 45.7923307,10.2957171 45.7923307,22.9409363 C45.7923307,35.5860558 35.5413347,45.8370518 22.8962151,45.8370518 C10.250996,45.8370518 0,35.5860558 0,22.9409363 C0,10.2957171 10.250996,0.0447211155 22.8962151,0.0447211155" id="Fill-6" fill="#F5333F" mask="url(#mask-2)"></path>
                    </g>
                    <path d="M23.0000498,5 C32.941162,5 41,13.0589376 41,23.0000498 C41,32.941162 32.941162,41 23.0000498,41 C13.0589376,41 5,32.941162 5,23.0000498 C5,13.0589376 13.0589376,5 23.0000498,5" id="Fill-8" fill="#FFFFFE"></path>
                    <path d="M23.000049,10 C30.1796952,10 36,15.8202288 36,23 C36,30.1796733 30.1796952,36 23.000049,36 C15.8203048,36 10,30.1796733 10,23 C10,15.8202288 15.8203048,10 23.000049,10" id="Fill-9" fill="#F5333F"></path>
                    <path d="M22.5000502,14 C27.1944256,14 31,17.8055744 31,22.5000502 C31,27.1944256 27.1944256,31 22.5000502,31 C17.8055744,31 14,27.1944256 14,22.5000502 C14,17.8055744 17.8055744,14 22.5000502,14" id="Fill-10" fill="#FFFFFE"></path>
                    <path d="M22.5000479,19 C24.4329601,19 26,20.5670399 26,22.5000479 C26,24.4329601 24.4329601,26 22.5000479,26 C20.5670399,26 19,24.4329601 19,22.5000479 C19,20.5670399 20.5670399,19 22.5000479,19" id="Fill-11" fill="#F5333F"></path>
                </g>
            </g>
        </g>
    </g>
</svg>