<?xml version="1.0" encoding="UTF-8"?>
<svg width="112px" height="88px" viewBox="0 0 112 88" version="1.1" xmlns="http://www.w3.org/2000/svg" xmlns:xlink="http://www.w3.org/1999/xlink">
    <!-- Generator: sketchtool 52.2 (67145) - http://www.bohemiancoding.com/sketch -->
    <title>E1FF90DE-0378-4A0F-A494-E48128BBDFAE</title>
    <desc>Created with sketchtool.</desc>
    <defs>
        <polygon id="path-1" points="0.009 0.006 150 0.006 150 150 0.009 150"></polygon>
        <path d="M23.50515,0.04485 C23.63295,0.1947 23.7606,0.34275 23.89125,0.48705 C24.3675,1.0173 24.8535,1.51485 25.35195,1.9722 C25.6497,2.2455 25.953,2.50575 26.2578,2.75175 C26.4648,2.91765 26.67225,3.0747 26.8809,3.22635 C22.182,8.0163 9.65595,11.20545 0.1407,10.3599 C0.42735,8.78055 0.60795,7.467 0.7029,6.24855 C7.6077,6.8199 14.91285,5.48745 21.96795,1.3338 C21.96795,1.3338 22.7391,0.86115 23.50515,0.04485" id="path-3"></path>
        <path d="M8.4471,0.0681 C9.89355,0.4242 11.4471,0.83655 12.0513,1.0965 C12.81135,1.42395 13.8429,1.86165 14.8164,2.24385 C11.50305,3.86325 7.2801,5.0958 2.94705,5.7597 C1.7901,4.6344 0.8049,2.54685 0.1362,2.03085 C0.1206,2.01885 0.10695,2.00835 0.0915,1.99635 C2.8602,1.7058 5.65785,1.0824 8.4471,0.0681" id="path-5"></path>
    </defs>
    <g id="Booking-tool" stroke="none" stroke-width="1" fill="none" fill-rule="evenodd">
        <g id="Setting" transform="translate(-435.000000, -1526.000000)">
            <g id="Group-35" transform="translate(382.000000, 1446.000000)">
                <g id="Group-26" transform="translate(0.000000, 29.000000)">
                    <g id="Axe-on-target-settings" transform="translate(100.874777, 100.874777) rotate(63.000000) translate(-100.874777, -100.874777) translate(25.874777, 25.874777)">
                        <g id="Group-3">
                            <mask id="mask-2" fill="white">
                                <use xlink:href="#path-1"></use>
                            </mask>
                            <g id="Clip-2"></g>
                        </g>
                        <path d="M98.23335,64.45065 C98.2755,64.5183 98.3178,64.5861 98.3583,64.65345 C100.3743,67.90335 101.91915,71.34525 102.96375,74.86785 C103.4664,76.5642 103.8519,78.2781 104.1177,80.0004 C104.20665,80.5758 104.28315,81.1512 104.3445,81.7269 C105.1593,89.2983 103.63875,96.9195 99.47535,103.55265 C96.97815,107.5302 93.74985,110.80515 90.01935,113.3415 C89.8206,113.1615 89.60535,112.935 89.45565,112.695 C89.10945,112.1397 87.80745,111.94905 87.80745,111.94905 L87.6615,113.77545 L86.2992,114.12375 L85.58565,114.8001 C85.58565,114.8001 84.43995,114.8205 84.1968,114.97215 C83.95245,115.1244 83.2581,115.866 82.8693,116.1084 C82.48065,116.35095 81.66465,117.2067 80.9886,117.04995 C80.3124,116.89335 79.6692,117.4872 79.2429,117.75315 C78.8163,118.0191 78.111,117.99615 77.80455,118.18725 C77.7123,118.24485 77.5017,118.4733 77.2506,118.76565 C66.72045,121.0692 54.738,119.1543 44.21355,112.548 C26.5398,101.4552 18.9942,80.9118 25.545,64.3029 C27.50925,63.90315 29.55405,63.51645 29.8263,63.5796 C29.9796,63.61515 30.6246,63.6972 31.4934,63.8016 L30.60795,55.62945 C32.59305,53.1807 34.89195,51.06675 37.4298,49.299 L37.43535,49.29555 C37.6323,49.1727 37.95075,49.1901 38.3022,49.20735 C38.72745,49.22835 39.20115,49.24935 39.56595,49.0218 C40.2324,48.6063 40.9542,48.156 40.9542,48.156 L42.57645,49.1496 L41.6256,47.1204 C41.6256,47.1204 43.42185,45.9492 43.7073,45.8283 L43.7181,45.8232 L43.73205,45.816 C55.6377,40.73415 70.68465,41.7975 83.55195,49.87515 C85.9734,51.396 88.20525,53.09235 90.23595,54.9339 L90.2367,54.9351 L89.9829,55.91085 L91.3416,56.9145 L92.80695,58.08915 L92.0295,58.5741 C92.0295,58.5741 93.1851,58.6956 93.32355,58.91775 C93.462,59.13975 94.0134,60.02385 94.0134,60.02385 L94.6284,61.00995 L94.17315,62.6298 L95.81175,60.9708 C96.6813,62.1006 97.48935,63.26265 98.23335,64.45065" id="Fill-8" fill="#D2352B"></path>
                        <path d="M93.0612,98.54505 C88.78905,105.35115 81.76215,109.86045 73.275,111.24195 C64.78785,112.62345 55.8564,110.712 48.12585,105.85965 C40.3953,101.0073 34.79115,93.795 32.3457,85.55115 C29.90025,77.30745 30.9063,69.0189 35.17845,62.2128 C39.4506,55.40655 46.4775,50.8974 54.96465,49.5159 C63.4518,48.13425 72.38325,50.04585 80.1138,54.8982 C87.84435,59.75055 93.4485,66.96285 95.89395,75.2067 C98.3394,83.45055 97.33335,91.73895 93.0612,98.54505" id="Fill-9" fill="#FFFFFE"></path>
                        <path d="M86.5284,93.95385 C83.23815,99.19575 77.82615,102.6687 71.2896,103.73265 C64.7529,104.79675 57.87405,103.32465 51.9201,99.5874 C45.96615,95.85015 41.65005,90.29535 39.76665,83.94615 C37.8831,77.59695 38.658,71.2134 41.9484,65.97135 C45.23865,60.72945 50.65065,57.2565 57.1872,56.19255 C63.7239,55.1283 70.6026,56.60055 76.55655,60.3378 C82.5105,64.07505 86.82675,69.62985 88.71015,75.97905 C90.59355,82.32825 89.8188,88.7118 86.5284,93.95385" id="Fill-10" fill="#D2352B"></path>
                        <path d="M80.11425,88.9461 C77.80575,92.62395 74.0088,95.06055 69.4227,95.8071 C64.83645,96.55365 60.01035,95.52075 55.833,92.89875 C51.65565,90.27675 48.62745,86.37945 47.3061,81.9249 C45.9846,77.4702 46.5282,72.9915 48.8367,69.31365 C51.1452,65.6358 54.9423,63.1992 59.52825,62.4528 C64.1145,61.7061 68.9406,62.739 73.11795,65.36115 C77.2953,67.98315 80.32365,71.8803 81.64485,76.335 C82.9665,80.7897 82.42275,85.2684 80.11425,88.9461" id="Fill-11" fill="#FFFFFE"></path>
                        <path d="M73.7001,83.9385 C72.37335,86.0523 70.1913,87.45255 67.5558,87.88155 C64.92015,88.31055 62.1465,87.717 59.74575,86.2101 C57.34515,84.7032 55.60485,82.46355 54.84555,79.90365 C54.0861,77.34345 54.3984,74.7696 55.72515,72.65595 C57.0519,70.5423 59.23395,69.14205 61.86945,68.71305 C64.50525,68.2839 67.27875,68.8776 69.67935,70.3845 C72.0801,71.8914 73.82025,74.1309 74.5797,76.69095 C75.33915,79.251 75.02685,81.825 73.7001,83.9385" id="Fill-12" fill="#D2352B"></path>
                        <path d="M58.3755,72.38325 L56.8821,72.90735 L56.5914,73.00995 C56.5914,73.00995 53.85465,71.75055 50.4762,70.20645 C50.40315,70.1733 50.32995,70.14015 50.2563,70.10595 C48.22815,69.17895 45.98715,68.1579 43.9791,67.2507 C40.81605,65.82195 38.2296,64.6725 37.94835,64.60725 C37.8834,64.59225 37.77585,64.5729 37.6326,64.55115 C36.55395,64.3848 33.45585,64.0371 31.4934,63.8016 L30.60795,55.62945 L37.08975,59.54025 L37.0905,59.54145 L50.1768,67.4361 L56.781,71.42175 L58.3755,72.38325" id="Fill-13" fill="#AB252A"></path>
                        <path d="M50.2563,70.10595 C48.22815,69.17895 45.98715,68.1579 43.9791,67.2507 C40.81605,65.82195 38.2296,64.6725 37.94835,64.60725 C37.8834,64.59225 37.77585,64.5729 37.6326,64.55115 C36.55395,64.3848 33.45585,64.0371 31.4934,63.8016 L31.1511,60.6432 C32.0655,60.4077 32.76825,60.2856 33.885,60.89415 C35.9085,61.9968 37.1202,63.06915 40.49835,64.40985 C43.8777,65.7498 46.53225,67.1547 48.84,69.00255 C49.24875,69.3291 49.7385,69.7038 50.2563,70.10595" id="Fill-14" fill="#8E2326"></path>
                        <path d="M43.7274,63.5451 L43.9791,67.2507 C40.81605,65.82195 38.2296,64.6725 37.94835,64.60725 C37.8834,64.59225 37.77585,64.5729 37.6326,64.55115 L37.0905,59.54145 L43.7274,63.5451" id="Fill-15" fill="#AFA29F"></path>
                        <path d="M43.88715,65.90115 L43.9791,67.2507 C40.81605,65.82195 38.2296,64.6725 37.94835,64.60725 C37.8834,64.59225 37.77585,64.5729 37.6326,64.55115 L37.46565,63.0048 C38.27745,63.44565 39.23775,63.9096 40.49835,64.40985 C41.71665,64.89165 42.83955,65.3838 43.88715,65.90115" id="Fill-16" fill="#7C716D"></path>
                        <path d="M56.781,71.42175 L56.8821,72.90735 L56.5914,73.00995 C56.5914,73.00995 53.85465,71.75055 50.4762,70.20645 L50.1768,67.4361 L56.781,71.42175" id="Fill-17" fill="#AFA29F"></path>
                        <path d="M104.1177,80.0004 C101.5434,79.12575 99.02115,78.3282 96.48765,77.51085 C96.31965,76.74345 96.12165,75.97455 95.89395,75.2067 C95.559,74.0775 95.1645,72.9672 94.71375,71.8803 C97.49355,72.9258 100.23615,73.9107 102.96375,74.86785 C103.4664,76.5642 103.8519,78.2781 104.1177,80.0004" id="Fill-18" fill="#8D2326"></path>
                        <path d="M96.48765,77.51085 C93.9474,76.69125 91.39575,75.85155 88.77075,74.8944 C88.6074,74.835 88.45635,74.7918 88.3167,74.76405 C87.4557,72.3132 86.2275,69.99465 84.68055,67.87095 C88.10235,69.3285 91.434,70.6467 94.71375,71.8803 C95.1645,72.9672 95.559,74.0775 95.89395,75.2067 C96.12165,75.97455 96.31965,76.74345 96.48765,77.51085 M81.96015,64.6683 C81.87285,64.57965 81.78495,64.4916 81.69645,64.40385 C81.7533,64.4295 81.84495,64.52505 81.96015,64.6683" id="Fill-19" fill="#A37A76"></path>
                        <path d="M81.58605,85.83855 C82.5801,82.87395 82.61295,79.59795 81.64485,76.335 C81.40485,75.5256 81.1083,74.7342 80.7588,73.9659 C81.4926,73.4598 82.13865,72.9288 82.6809,72.37635 C81.6384,71.6232 80.6421,70.69785 79.69125,69.63705 C79.11675,68.99685 78.5586,68.3073 78.0195,67.575 C76.8294,65.9658 75.7257,64.15725 74.7147,62.2356 C76.9653,62.8026 79.1661,63.28185 81.69585,64.4037 C81.78495,64.4916 81.87285,64.57965 81.96015,64.6683 C82.5684,65.42445 83.83425,67.5087 84.13185,67.63635 C84.315,67.71495 84.498,67.79325 84.68055,67.87095 C86.2275,69.99465 87.4557,72.3132 88.3167,74.76405 C88.18695,74.73825 88.0674,74.72565 87.9573,74.72565 C85.73505,74.72565 87.41445,79.8306 89.68485,83.9529 C89.6435624,84.7093614 90.4820713,85.5742845 90.3629797,86.3145717 C90.245403,87.0454419 89.1712066,87.6519064 88.9782,88.36305 C86.77095,87.8367 84.1371,86.8695 81.58605,85.83855 Z" id="Fill-20" fill="#8D2326"></path>
                        <path d="M81.58605,85.83855 C81.2502,85.7028 80.91525,85.5657 80.5833,85.4286 C78.6177,84.6168 76.53945,83.6877 74.3673,82.6353 C75.07545,80.88915 75.1806,78.92745 74.65665,76.96395 C77.0079,76.11975 79.1055,75.1062 80.7588,73.9659 C81.1083,74.7342 81.40485,75.5256 81.64485,76.335 C82.61295,79.59795 82.5801,82.87395 81.58605,85.83855" id="Fill-21" fill="#A37A76"></path>
                        <path d="M74.3673,82.6353 C72.09645,81.53505 69.7233,80.3001 67.2699,78.9234 L67.27125,78.9009 C69.8457,78.44295 72.3558,77.78775 74.6292,76.97385 C74.63835,76.97055 74.6475,76.96725 74.65665,76.96395 C75.1806,78.92745 75.07545,80.88915 74.3673,82.6353" id="Fill-22" fill="#8D2326"></path>
                        <path d="M127.04355,41.47605 C126.44535,41.2083 125.99625,40.64475 125.90625,39.94725 C125.76855,38.8797 126.52305,37.90185 127.59075,37.76415 C127.9488,37.71795 128.2974,37.77285 128.6052,37.90635 C128.85105,38.21085 129.0186,38.5866 129.0723,39.0033 C129.2274,40.20705 128.3769,41.30925 127.1733,41.4645 C127.13025,41.47005 127.08705,41.47395 127.04355,41.47605 M124.08615,32.7435 L124.08105,32.74425 C123.174,32.90505 122.1435,33.0729 120.94665,33.22725 C120.35595,33.30345 119.76,33.39255 119.1636,33.49215 L124.35885,42.27045 L124.21275,42.65685 L124.00815,43.2015 C125.86275,43.7361 126.4407,45.05505 128.11485,45.61635 L128.13495,45.62265 C129.06255,45.9336 129.7044,45.9681 130.68465,45.7647 C132.6477,45.36105 133.81545,43.13595 134.36355,39.9876 C134.8164,37.3908 134.3406,35.0853 133.25775,33.63885 C133.08885,33.4155 132.83175,33.2001 132.5319,33.00585 C131.75025,32.4975 130.674,32.1198 130.0905,32.0481 L130.0851,32.04705 C128.42775,31.84755 126.8112,32.2626 124.08615,32.7435" id="Fill-23" fill="#986831"></path>
                        <path d="M129.0723,39.0033 C129.2274,40.20705 128.3769,41.30925 127.1733,41.4645 C127.13025,41.47005 127.08705,41.47395 127.04355,41.47605 C126.44535,41.2083 125.99625,40.64475 125.90625,39.94725 C125.76855,38.8797 126.52305,37.90185 127.59075,37.76415 C127.9488,37.71795 128.2974,37.77285 128.6052,37.90635 C128.85105,38.21085 129.0186,38.5866 129.0723,39.0033 M97.34685,38.53935 C88.7514,41.39145 81.0906,42.81705 77.41665,42.98445 C73.7478,43.15125 72.5952,43.03725 69.0438,43.21875 C68.8245,43.2294 68.60235,43.2441 68.3772,43.2627 C66.7032,43.3962 64.87305,43.7163 63.05955,44.1252 C57.6771,45.33915 52.45485,47.34675 51.9669,47.6634 C51.29175,48.10245 53.12685,57.3507 53.9793,57.5664 C54.4137,57.67665 58.48185,56.8194 62.63895,55.91745 C64.1358,55.59315 65.6442,55.2621 66.9981,54.9684 C69.2514,54.4818 71.08035,54.0972 71.72085,54.01455 C72.2082,53.9517 72.7002,53.88465 73.19685,53.8119 L73.2003,53.81145 C79.16535,52.94775 85.9962,51.31755 98.3568,46.41135 C106.5789,43.1487 115.6083,42.2907 120.3927,42.4527 C123.6792,42.5646 126.015,44.9577 128.11485,45.61635 L128.13495,45.62265 C128.3484,45.68955 128.5611,45.7374 128.7711,45.7629 C130.7595,46.00545 131.73525,42.61635 132.28335,39.46815 C132.54225,37.9869 132.60075,36.24105 132.3822,34.8459 L132.38205,34.8441 C132.21885,33.7956 131.8989,32.94405 131.3916,32.55255 C131.0922,32.32155 130.65585,32.1555 130.0905,32.0481 L130.0851,32.04705 C127.9584,31.64205 124.03425,32.0412 118.86645,32.70765 C111.11745,33.70695 102.72585,36.7551 97.34685,38.53935" id="Fill-24" fill="#AA8609"></path>
                        <path d="M98.5653,46.32915 C98.57235,46.32645 98.5782,46.3242 98.58525,46.32135 C98.5782,46.3242 98.57235,46.32645 98.5653,46.32915 M129.5967,45.89235 C129.1446,45.8922 128.71785,45.8124 128.2062,45.64605 C128.7177,45.8124 129.1446,45.8922 129.5967,45.89235 M130.63395,45.77505 C130.644,45.7731 130.65405,45.771 130.6641,45.7689 C130.65405,45.771 130.644,45.7731 130.63395,45.77505 M128.13495,45.62265 L128.11485,45.61635 C126.015,44.9577 123.6792,42.5646 120.3927,42.4527 C120.0315,42.44055 119.64555,42.4341 119.238,42.4341 C119.64585,42.4341 120.0312,42.4404 120.3927,42.4527 C123.6792,42.5646 126.015,44.9577 128.11485,45.61635 L128.13495,45.62265" id="Fill-25" fill="#DCBE90"></path>
                        <path d="M129.5979,45.89235 C129.59745,45.89235 129.597,45.89235 129.5967,45.89235 C129.1446,45.8922 128.7177,45.8124 128.2062,45.64605 C128.18685,45.63975 128.16735,45.63345 128.14785,45.62685 C128.1477,45.62685 128.1477,45.62685 128.1477,45.62685 C128.1435,45.62535 128.13915,45.624 128.13495,45.62265 C128.3484,45.68955 128.5611,45.7374 128.7711,45.7629 C128.8386,45.77115 128.9052,45.7752 128.97045,45.7752 C130.8255,45.7752 131.75385,42.5094 132.28335,39.46815 C132.54225,37.9869 132.60075,36.24105 132.3822,34.8459 L132.38205,34.8441 C132.39495,34.22445 132.44685,33.60855 132.5319,33.00585 C132.83175,33.2001 133.08885,33.4155 133.25775,33.63885 C134.06355,34.71525 134.5332,36.2673 134.53425,38.061 C134.53455,38.6778 134.4795,39.32325 134.36355,39.9876 C133.81545,43.13595 132.6477,45.36105 130.68465,45.7647 C130.67775,45.7662 130.671,45.76755 130.6641,45.7689 C130.65405,45.771 130.644,45.7731 130.63395,45.77505 C130.6293,45.77595 130.6248,45.777 130.62015,45.7779 C130.6194,45.77805 130.6185,45.7782 130.6179,45.77835 C130.24125,45.8535 129.91395,45.8922 129.59895,45.89235 C129.59865,45.89235 129.59835,45.89235 129.5979,45.89235" id="Fill-26" fill="#AE793A"></path>
                        <path d="M119.1195,42.43425 C119.1591,42.4341 119.1987,42.4341 119.23785,42.4341 C119.1987,42.4341 119.1591,42.4341 119.1195,42.43425" id="Fill-27" fill="#DCBE90"></path>
                        <path d="M72.56865,53.8389 C71.6565,53.8389 70.941,53.6505 70.39395,53.26155 C71.93775,53.2092 73.4952,52.98735 75.72315,52.7001 C80.28645,52.11165 93.67665,46.6647 99.72885,44.04615 C104.8461,41.832 113.11545,40.0386 117.57045,40.0386 C118.38435,40.0386 119.0706,40.09845 119.5875,40.2264 C121.1661,40.6164 122.75235,41.66355 124.21275,42.65685 C125.83275,43.7577 127.2966,44.79285 128.41755,44.79285 C128.4279,44.79285 128.43795,44.79285 128.448,44.7927 C130.5789,44.75415 132.26685,40.33155 132.3822,34.8459 L132.38205,34.8441 L132.3822,34.8459 C132.60075,36.24105 132.54225,37.9869 132.28335,39.46815 C131.75385,42.5094 130.8255,45.7752 128.97045,45.7752 C128.9052,45.7752 128.8386,45.77115 128.7711,45.7629 C128.5611,45.7374 128.3484,45.68955 128.13495,45.62265 L128.11485,45.61635 C126.015,44.9577 123.6792,42.5646 120.3927,42.4527 C120.0312,42.4404 119.64585,42.4341 119.238,42.4341 L119.23785,42.4341 C119.1987,42.4341 119.1591,42.4341 119.1195,42.43425 C114.19215,42.44895 106.14045,43.39035 98.69115,46.2801 C98.69025,46.28055 98.68905,46.281 98.68815,46.2813 C98.6664,46.2897 98.64585,46.2978 98.62425,46.3062 L98.6238,46.30635 C98.6112,46.3113 98.59785,46.31655 98.58525,46.32135 C98.5782,46.3242 98.57235,46.32645 98.5653,46.32915 C98.50605,46.3524 98.4459,46.3761 98.38665,46.3995 C98.3766,46.40355 98.36685,46.40745 98.3568,46.41135 C93.15345,48.4767 88.93035,49.9614 85.3389,51.0528 C80.3988,52.55415 76.65435,53.31135 73.2003,53.81145 L73.19685,53.8119 C72.9777,53.8299 72.7686,53.8389 72.56865,53.8389" id="Fill-28" fill="#A97F02"></path>
                        <path d="M126.88515,42.0228 C125.526,42.0228 124.3476,41.0148 124.16925,39.6321 C124.1571,39.53745 124.1502,39.4437 124.14705,39.35145 C124.1115,37.96245 125.13075,36.74385 126.5376,36.5625 C126.65685,36.54705 126.77505,36.53955 126.8919,36.53955 C128.1852,36.53955 129.31515,37.4541 129.5751,38.7354 C129.58845,38.79855 129.59895,38.86545 129.60735,38.93085 C129.6846,39.5301 129.5616,40.1097 129.29055,40.60155 C128.8836,41.3421 128.14125,41.8842 127.239,42.0006 C127.14765,42.0123 127.0557,42.0189 126.96675,42.0216 C126.93945,42.0225 126.9123,42.0228 126.88515,42.0228 M125.89005,39.693 C125.8899,39.77685 125.8953,39.86175 125.90625,39.94725 C125.99625,40.64475 126.44535,41.2083 127.04355,41.47605 C127.08705,41.47395 127.13025,41.47005 127.1733,41.4645 C128.2806,41.3217 129.08895,40.37745 129.09045,39.2901 C129.0906,39.19545 129.0846,39.09975 129.0723,39.0033 C129.0186,38.5866 128.85105,38.21085 128.6052,37.90635 C128.36955,37.8042 128.1102,37.7481 127.8408,37.7481 C127.7583,37.7481 127.67475,37.75335 127.59075,37.76415 C126.60855,37.89075 125.8914,38.7285 125.89005,39.693" id="Fill-29" fill="#D79C44"></path>
                        <path d="M68.3772,43.2627 C67.9704,43.4481 67.60605,43.78575 67.50045,44.3649 C67.30305,45.4407 68.90055,51.04155 69.53895,52.2582 C70.17705,53.47305 71.3346,53.9646 73.19685,53.8119 C72.7002,53.88465 72.2082,53.9517 71.72085,54.01455 C71.08035,54.0972 69.2514,54.4818 66.9981,54.9684 C63.7752,51.3435 62.7744,47.2623 63.05955,44.1252 C64.87305,43.7163 66.7032,43.3962 68.3772,43.2627" id="Fill-30" fill="#91652F"></path>
                        <path d="M65.9448,40.69125 C66.1779,40.72065 66.39705,40.73625 66.60075,40.7694 C67.3002,40.88415 67.818,41.2077 68.0556,43.0503 C68.07105,43.12875 68.08635,43.20735 68.10345,43.28565 L68.1018,43.28595 C68.1018,43.28595 67.57995,43.3392 67.29855,43.37025 C67.01745,43.40295 66.48105,43.47915 66.42645,43.8975 C66.34725,44.49075 66.4401,45.71295 67.55505,49.77075 C68.67,53.82855 69.39,54.33435 69.84285,54.276 C70.29585,54.2175 71.1636,54.1056 71.1636,54.1056 C72.9207,58.94715 75.2334,63.80805 78.0195,67.575 C78.5586,68.3073 79.11675,68.99685 79.69125,69.63705 C80.6421,70.69785 81.6384,71.6232 82.6809,72.37635 C79.9287,72.55095 76.91145,73.15545 73.89375,74.01375 C69.53325,75.25185 65.1744,77.0184 61.6233,78.777 C61.80825,77.21085 61.91835,75.90645 61.9599,74.6949 C62.06535,71.83305 61.8159,69.49125 61.42155,65.44215 C60.8604,59.6796 58.09425,47.40555 57.8655,45.6318 C57.63645,43.8564 57.4227,42.98595 58.25295,42.51465 C58.6329,42.2976 58.7958,42.09465 59.00115,41.9088 C59.2332,41.69865 59.52075,41.51265 60.2421,41.3637 C60.4197,41.32845 60.62175,41.29365 60.85575,41.2617 C62.76855,40.99935 65.59935,40.64655 65.9448,40.69125" id="Fill-31" fill="#8C1200"></path>
                        <path d="M65.9448,40.69125 C66.1779,40.72065 66.39705,40.73625 66.60075,40.7694 C65.6943,40.9476 65.0493,41.3634 64.6113,41.6457 C64.02,42.02835 63.88905,42.8331 64.30905,43.15695 C64.30905,43.15695 60.22035,43.80165 59.23485,43.28625 C58.7976,43.059 58.7763,42.51375 59.00115,41.9088 C59.2332,41.69865 59.52075,41.51265 60.2421,41.3637 C60.4197,41.32845 60.62175,41.29365 60.85575,41.2617 C62.76855,40.99935 65.59935,40.64655 65.9448,40.69125" id="Fill-32" fill="#8C1200"></path>
                        <path d="M62.48865,41.109 C62.5515,41.1078 62.6097,41.1108 62.66085,41.1147 C63.45645,41.175 64.13505,41.1294 64.6113,41.6457 C64.90455,41.96505 65.12265,42.50235 65.2401,43.4133 C65.9004,46.49685 66.47595,50.295 67.97265,53.9184 C70.2,59.31195 73.8366,64.56945 77.74065,68.52135 L77.7447,68.526 C78.1575,68.94375 78.5784,69.3429 79.00755,69.7251 C80.16855,70.7589 81.3939,71.6547 82.6809,72.37635 C80.9124,74.1783 78.03615,75.7536 74.6292,76.97385 C68.9814,78.9957 61.8753,80.0382 55.9407,79.5099 C55.9779,79.3089 56.01195,79.11195 56.0448,78.91875 C56.2719,77.5974 56.4195,76.46145 56.5029,75.39855 C56.7306,72.52095 56.49495,70.1775 56.1333,66.12405 C55.89855,63.47595 55.122,59.46375 54.3303,55.7268 C53.78925,53.1741 53.2401,50.74845 52.85055,48.97635 C52.73625,48.45705 52.63605,47.99205 52.55205,47.59845 C52.4316,47.01705 52.34805,46.5867 52.31715,46.3473 C52.08825,44.5719 51.84855,43.70475 52.90965,43.20375 C54.07305,42.6546 57.6831,41.7882 60.2421,41.3637 C60.39645,41.3385 60.549,41.3136 60.69495,41.29125 C60.70845,41.2878 60.72225,41.286 60.73605,41.2842 C61.4745,41.1732 62.09085,41.106 62.48865,41.109 L60.4184678,58.8288764" id="Fill-33" fill="#DC1E00"></path>
                        <path d="M62.66085,41.1147 C63.45645,41.175 64.13505,41.1294 64.6113,41.6457 C64.3236,42.13455 64.03155,42.69735 64.0596,43.38165 C64.0812,43.9068 61.0461,44.7753 58.73295,45.3939 C56.42115,46.01235 54.69735,46.5726 53.38635,48.27165 C53.18385,48.53415 53.00715,48.7653 52.85055,48.97635 C52.56765,47.6928 52.3692,46.7502 52.31715,46.3473 C52.08825,44.5719 51.84855,43.70475 52.90965,43.20375 C54.07305,42.6546 57.6831,41.7882 60.2421,41.3637 C60.39645,41.3385 60.549,41.3136 60.69495,41.29125 C60.70845,41.2878 60.72225,41.286 60.73605,41.2842 C61.59285,41.15445 62.28615,41.08605 62.66085,41.1147" id="Fill-34" fill="#8C1200"></path>
                        <path d="M64.8720104,41.5430144 C65.1084844,42.5928852 65.2624195,43.3694849 65.3338158,43.8728135 C65.5915389,45.6897072 65.7503334,47.1244192 65.9520621,48.1744403 C66.082861,48.8552635 66.2352156,49.6049086 66.3965982,50.2450541 C66.5238927,50.7499847 66.7157905,51.4933732 66.9722918,52.4752194 C66.9498973,52.8890398 66.67055,53.2157 66.13425,53.4552 C65.0301,53.9478 55.49745,56.38845 54.7962,56.0412 C54.62235,55.95525 54.46875,55.8507 54.3303,55.7268 C53.78925,53.1741 53.2401,50.74845 52.85055,48.97635 C52.77435,48.63015 52.5075345,47.2620282 52.0501034,44.8719846 L64.8720104,41.5430144 Z" id="Fill-35" fill="#B11600"></path>
                        <path d="M56.0139,79.09965 C56.02425,79.03905 56.0346,78.9786 56.0448,78.91875 C56.04495,78.91845 56.0451,78.9183 56.04525,78.91815 C56.0349,78.9783 56.02455,79.03875 56.0139,79.09965" id="Fill-41" fill="#3A3A38"></path>
                        <path d="M55.9407,79.5099 C55.96635,79.3713 55.9905,79.23465 56.0139,79.09965 C56.02455,79.03875 56.0349,78.9783 56.04525,78.91815 C56.16075,78.77895 56.2794,78.64425 56.40195,78.5157 C56.16435,79.2795 55.9407,79.5099 55.9407,79.5099" id="Fill-42" fill="#5B5955"></path>
                        <g id="Group-45" transform="translate(55.800000, 69.150000)">
                            <mask id="mask-4" fill="white">
                                <use xlink:href="#path-3"></use>
                            </mask>
                            <use id="Clip-44" fill="#C7C6C7" xlink:href="#path-3"></use>
                            <path d="M23.50515,0.04485 C23.63295,0.1947 23.7606,0.34275 23.89125,0.48705 C24.3675,1.0173 24.8535,1.51485 25.35195,1.9722 C25.6497,2.2455 25.953,2.50575 26.2578,2.75175 C26.4648,2.91765 26.67225,3.0747 26.8809,3.22635 C22.182,8.0163 9.65595,11.20545 0.1407,10.3599 C0.42735,8.78055 0.60795,7.467 0.7029,6.24855 C7.6077,6.8199 14.91285,5.48745 21.96795,1.3338 C21.96795,1.3338 22.7391,0.86115 23.50515,0.04485" id="Fill-43" mask="url(#mask-4)"></path>
                        </g>
                        <path d="M78.9972,68.8302 C79.2255,69.1071 79.458,69.3765 79.69125,69.63705 C80.1675,70.1673 80.6535,70.66485 81.15195,71.1222 C81.4497,71.3955 81.753,71.65575 82.0578,71.90175 C81.2907,71.62785 80.06655,70.7826 78.8484,69.64425 C78.80985,69.34635 78.81945,69.0405 78.9972,68.8302" id="Fill-46" fill="#757670"></path>
                        <path d="M97.32225,38.9592 C90.86265,41.1333 80.7561,43.98405 77.3097,43.9611 C73.8633,43.93815 69.66735,43.75095 67.96755,44.1453 C67.96755,44.1453 67.6122,44.44485 67.6998,45.12345 C67.78725,45.8019 68.45775,49.15545 69.24945,50.92305 C70.0431,52.69215 71.8182,52.2846 76.61895,51.0528 C81.42135,49.8207 89.99055,46.8198 94.6083,44.38605 C99.22605,41.95245 110.7198,37.8723 116.51685,37.79685 C118.96515,37.7631 120.7314,37.99215 122.06685,38.39775 C122.90835,38.65155 123.5805,38.9763 124.14705,39.3513 C124.1115,37.96245 125.13075,36.74385 126.5376,36.5625 C127.97385,36.37725 129.2916,37.33815 129.5751,38.7354 C129.90945,36.26415 130.12995,33.3717 129.34725,32.99115 C128.7177,32.6838 126.52785,32.64405 124.0863,32.7435 L124.08105,32.74425 C121.93365,32.83035 119.5917,33.02385 117.942,33.23655 C114.4119,33.6918 103.78155,36.78345 97.32225,38.9592 Z M127.239,42.0006 C127.14765,42.0123 127.0557,42.0189 126.96675,42.0216 C128.0025,42.9525 128.835,43.218 129.08355,41.8065 C129.1194,41.60925 129.16155,41.36565 129.2094,41.0847 C129.2352,40.93245 129.26355,40.77135 129.29055,40.60155 C128.8836,41.34195 128.14125,41.8842 127.239,42.0006 Z" id="Fill-47" fill="#B8A024"></path>
                        <path d="M126.6108,37.10265 C127.39785,37.00125 128.142,37.32885 128.6052,37.90635 C128.2974,37.77285 127.94895,37.71795 127.59075,37.76415 C126.52305,37.90185 125.76855,38.8797 125.90625,39.94725 C125.99625,40.64475 126.44535,41.2083 127.04355,41.47605 C126.80265,41.4948 126.5649,41.47125 126.34215,41.41245 C125.5707,41.2143 124.9458,40.60335 124.7547,39.79995 C124.73595,39.7236 124.72065,39.645 124.71045,39.5658 C124.5549,38.3604 125.4054,37.2582 126.6108,37.10265" id="Fill-48" fill="#986831"></path>
                        <path d="M65.3268,43.8276 C65.9526,46.8333 66.5421,50.4546 67.97265,53.9184 C70.2,59.31195 73.8366,64.56945 77.74065,68.52135 L77.74485,68.526 C78.1575,68.94375 78.5784,69.3429 79.00755,69.7251 C79.08855,69.79695 79.17135,69.86865 79.25235,69.9405 C79.1274,69.85335 78.99225,69.75525 78.8484,69.64425 C75.97305,67.42575 71.271,61.98375 68.6853,56.93385 C66.60825,52.88115 65.56845,46.8408 65.3268,43.8276" id="Fill-49" fill="#8C1200"></path>
                        <g id="Group-52" transform="translate(63.150000, 73.350000)">
                            <mask id="mask-6" fill="white">
                                <use xlink:href="#path-5"></use>
                            </mask>
                            <g id="Clip-51"></g>
                            <path d="M8.4471,0.0681 C9.89355,0.4242 11.4471,0.83655 12.0513,1.0965 C12.81135,1.42395 13.8429,1.86165 14.8164,2.24385 C11.50305,3.86325 7.2801,5.0958 2.94705,5.7597 C1.7901,4.6344 0.8049,2.54685 0.1362,2.03085 C0.1206,2.01885 0.10695,2.00835 0.0915,1.99635 C2.8602,1.7058 5.65785,1.0824 8.4471,0.0681" id="Fill-50" mask="url(#mask-6)"></path>
                        </g>
                        <path d="M55.96455,72.67845 C56.28015,72.75165 64.3233,77.58975 66.76485,78.9489 C69.2064,80.30805 69.47445,81.0264 68.5305,81.615 C67.5864,82.20375 62.40345,83.4078 60.114,82.8771 C57.82455,82.3464 55.56135,80.7711 55.1541,78.63405 C54.74685,76.49715 55.96455,72.67845 55.96455,72.67845" id="Fill-53" fill="#D2352B"></path>
                    </g>
                </g>
            </g>
        </g>
    </g>
</svg>