<svg width="525px" height="242px" viewBox="0 0 525 242" version="1.1" xmlns="http://www.w3.org/2000/svg" xmlns:xlink="http://www.w3.org/1999/xlink">
    <g id="Booking-tool" stroke="none" stroke-width="1" fill="none" fill-rule="evenodd">
        <g id="Booking-step-1" transform="translate(-975.000000, -389.000000)" fill="#FFFFFF">
            <g id="Group-6" transform="translate(360.000000, 0.000000)">
                <g id="Group-5-Copy" transform="translate(615.000000, 389.000000)">
                    <path d="M23.4141916,0.000113065536 C44.2114293,1.41503469 59.5443055,2.12249551 69.4128202,2.12249551 C79.2813349,2.12249551 94.8132751,1.41503469 116.008641,0.000113065536 L240.480273,0.000113016603 C282.013893,1.41503469 308.936472,2.12249552 321.248012,2.12249551 C333.559551,2.1224955 339.475381,1.41503465 338.995501,0.000112953415 L497,-2.73558953e-13 C512.463973,-2.00482487e-06 525.000002,12.5360234 525.000004,27.9999964 C525.000004,28.0000272 525.000004,28.000058 525.000004,28.0000888 L524.999895,32.9182058 L480.642176,32.9182058 L524.999895,39.5289371 L524.999896,87.5799829 L515.868254,92.7203104 L524.999896,96.9927587 L524.999896,132.394436 L493.773801,132.394436 L524.999849,137.056395 L524.999849,205.444782 L488.158216,210.62893 L524.999985,217.036384 C524.999993,230.82344 513.823383,242.000064 500.036327,242.000072 C500.036316,242.000072 500.036306,242.000072 500.036295,242.000072 L434.608008,242.000029 C414.611928,239.730394 398.45329,238.595548 386.132094,238.595493 C373.810898,238.595438 358.680904,239.730144 340.742112,241.99961 L195.218616,241.999828 C147.521907,241.998668 114.95036,240.86389 97.503976,238.595493 C80.0575921,236.327097 67.5736541,237.461962 60.0521619,242.000089 L17.5167412,242.000089 C7.8425122,242.000089 4.79333669e-08,234.157577 4.79333657e-08,224.483348 C2.25347728,223.265855 3.3802159,222.334681 3.3802159,221.689824 C3.3802159,221.044967 2.25347728,219.419976 4.79333687e-08,216.814851 L4.79333742e-08,199.801742 L10.2611211,194.864691 L4.79333757e-08,191.305534 L4.79333873e-08,125.177457 L15.0662209,115.475332 L1.10849992,97.7337494 L4.79333668e-08,49.0059823 C22.7404548,48.4456991 34.1106822,48.1655575 34.1106822,48.1655575 C34.1106822,48.1655575 22.7404548,46.4363219 4.79333998e-08,42.9778506 L3.73034936e-13,23.4142805 C-3.16827846e-08,10.4829929 10.4828798,0.000113097206 23.4141673,0.000113065523 C23.4141754,0.000113065523 23.4141835,0.000113065527 23.4141916,0.000113065536 Z" id="location-shape-not-hovered"></path>
                </g>
            </g>
        </g>
    </g>
</svg>