<?xml version="1.0" encoding="UTF-8"?>
<svg width="715px" height="530px" viewBox="0 0 715 530" version="1.1" xmlns="http://www.w3.org/2000/svg" xmlns:xlink="http://www.w3.org/1999/xlink">
    <!-- Generator: sketchtool 52.2 (67145) - http://www.bohemiancoding.com/sketch -->
    <title>FC4DF22C-552D-4236-9C3C-CDBE92FF099B</title>
    <desc>Created with sketchtool.</desc>
    <defs>
        <filter x="-5.8%" y="-6.2%" width="111.6%" height="113.9%" filterUnits="objectBoundingBox" id="filter-1">
            <feOffset dx="0" dy="0" in="SourceAlpha" result="shadowOffsetOuter1"></feOffset>
            <feGaussianBlur stdDeviation="10" in="shadowOffsetOuter1" result="shadowBlurOuter1"></feGaussianBlur>
            <feColorMatrix values="0 0 0 0 0   0 0 0 0 0   0 0 0 0 0  0 0 0 0.2 0" type="matrix" in="shadowBlurOuter1" result="shadowMatrixOuter1"></feColorMatrix>
            <feMerge>
                <feMergeNode in="shadowMatrixOuter1"></feMergeNode>
                <feMergeNode in="SourceGraphic"></feMergeNode>
            </feMerge>
        </filter>
    </defs>
    <g id="Booking-tool" stroke="none" stroke-width="1" fill="none" fill-rule="evenodd">
        <g id="User-Login" transform="translate(-602.000000, -126.000000)" fill="#F2F2F2">
            <g id="Group-2" filter="url(#filter-1)" transform="translate(622.000000, 50.000000)">
                <g id="Group-5">
                    <g id="Group-6">
                        <path d="M28.0003535,96.0005024 L30.1047497,96.0005289 C56.8440313,98.8654484 76.5577116,100.297908 89.2457906,100.297908 C101.93387,100.297908 121.903489,98.8654484 149.154649,96.0005289 L309.189461,96.0005288 C362.589782,98.8654484 397.204496,100.297908 413.033604,100.297908 C428.862712,100.297908 436.468772,98.8654483 435.851784,96.0005287 L647.000354,96.0000326 C662.464327,96.000008 675.000373,108.536015 675.000398,123.999988 C675.000398,124.000042 675.000398,124.000095 675.000398,124.000149 L675.000077,162.652761 L617.968774,162.652761 L675.000077,176.038105 L675.000077,273.331391 L663.259405,283.739476 L675.000077,292.390288 L675.000077,364.071257 L658.687703,364.071257 L675.000017,373.510747 L675.000017,511.982882 L627.632246,522.479693 L675.000192,535.453445 L675.000489,558.000149 C675.000538,573.464122 662.464551,586.000189 647.000578,586.000238 C647.000503,586.000238 647.000428,586.000238 647.000354,586.000238 L558.78204,585.999588 C533.072817,581.404052 512.297444,579.106229 496.455921,579.106118 C480.614397,579.106006 461.161565,581.403546 438.097424,585.998739 L250.995955,585.99918 C189.671669,585.996831 147.794003,583.699144 125.362959,579.106118 C102.931914,574.513091 86.8811505,576.810955 77.2106693,585.999709 L28.0003535,586.000514 C12.5363805,586.000602 0.000282110728,573.464647 0.000194003976,558.000674 C0.000194002979,558.000499 0.000194003622,558.000324 0.000194005903,558.000149 L0.000816095346,550.531983 C2.89814137,548.066816 4.34680401,546.181383 4.34680401,544.875683 C4.34680401,543.569983 2.89814137,540.279717 0.000816095346,535.004885 L0.000816095346,500.55691 L13.1936742,490.560417 L0.000816095346,483.353872 L0.000816095346,349.458389 L19.3716541,329.813622 L1.42602893,293.890638 L0.000816095346,195.227133 C29.2385175,194.092677 43.8573682,193.525449 43.8573682,193.525449 C43.8573682,193.525449 29.2385175,190.02411 0.000816095346,183.021431 L9.09494702e-13,124.000149 C-8.21989871e-05,108.536176 12.5358782,96.0000822 27.9998512,96 C28.0000186,96 28.0001861,96 28.0003535,96 L28.0003535,96.0005024 Z" id="login-shape"></path>
                    </g>
                </g>
            </g>
        </g>
    </g>
</svg>