<?xml version="1.0" encoding="UTF-8"?>
<svg width="1048px" height="75px" viewBox="0 0 1048 75" version="1.1" xmlns="http://www.w3.org/2000/svg" xmlns:xlink="http://www.w3.org/1999/xlink">
    <!-- Generator: sketchtool 52.2 (67145) - http://www.bohemiancoding.com/sketch -->
    <title>B2F74F03-EAFE-418C-A35F-3AD132F1C7AB</title>
    <desc>Created with sketchtool.</desc>
    <g id="Booking-tool" stroke="none" stroke-width="1" fill="none" fill-rule="evenodd">
        <g id="Appointment-edit-reschedule-5" transform="translate(-612.000000, -855.000000)" fill="#24272A">
            <g id="Group-6" transform="translate(514.000000, 543.000000)">
                <g id="Group-2" transform="translate(0.000000, 254.000000)">
                    <path d="M111.319548,58.0000003 L144.739186,58.0000011 C186.254434,58.4385099 216.861775,58.6577643 236.56121,58.6577643 C256.260646,58.6577643 287.265357,58.4385099 329.575344,58.0000011 L578.044431,58.0000011 L739.272221,58.6577643 L769.761719,60.5488363 L837.052734,58.0000007 L1135.79808,58 C1141.43233,58 1145.99979,62.5674611 1145.99979,68.20171 C1145.99979,68.2017698 1145.99979,68.2018296 1145.99979,68.2018894 L1127.77129,68.9339931 L1145.99979,70.2506698 L1145.99979,85.1425228 L1127.77129,86.7355995 L1145.99979,88.0597054 L1145.99979,99.0312996 L1083.66656,99.0312996 L1145.9997,100.476122 L1145.9997,121.67087 L1117.60938,124.113839 L1145.99997,125.263308 C1145.99997,129.536161 1142.53614,132.999993 1138.26329,132.999993 L965.560367,132.999975 L872,128.491743 L778.186158,132.999845 L487.693543,132.999913 L292.392578,127.999994 L217.875554,132.999994 L103.428742,132.999994 C100.430531,132.999994 98,130.569463 98,127.571251 C102.49837,127.19393 104.747555,126.905342 104.747555,126.70549 C104.747555,126.505638 102.49837,126.002025 98,125.194651 L98,119.921994 L118.483152,118.391916 L98,117.288871 L98,96.7946327 L128.075047,93.7877757 L100.212777,88.2893513 L98,73.1877705 C143.394279,73.014129 166.091419,72.9273083 166.091419,72.9273083 C166.091419,72.9273083 143.394279,72.3913882 98,71.3195479 C98,63.9633649 103.963365,58.0000003 111.319548,58.0000003 Z" id="main-person-reschedule"></path>
                </g>
            </g>
        </g>
    </g>
</svg>