<?xml version="1.0" encoding="UTF-8"?>
<svg width="1201px" height="747px" viewBox="0 0 1201 747" version="1.1" xmlns="http://www.w3.org/2000/svg" xmlns:xlink="http://www.w3.org/1999/xlink">
    <!-- Generator: sketchtool 52.2 (67145) - http://www.bohemiancoding.com/sketch -->
    <title>3BEA1A5D-D032-42DA-9073-3A842330B769</title>
    <desc>Created with sketchtool.</desc>
    <g id="Booking-tool" stroke="none" stroke-width="1" fill="none" fill-rule="evenodd">
        <g id="Setting-Add-location" transform="translate(-513.000000, -588.000000)" fill="#F2F2F2">
            <g id="Group-6" transform="translate(513.000000, 588.000000)">
                <path d="M28.9893496,0.997100264 L54.5189265,1.00057869 C102.055427,5.36227239 137.10197,7.54311924 159.658555,7.54311924 C182.21514,7.54311924 217.716685,5.36227239 266.163192,1.00057869 L550.669525,1.00057854 C645.603428,5.36227237 707.140697,7.54311926 735.281333,7.54311924 C763.42197,7.54311922 776.943854,5.36227225 775.846987,1.00057835 L1173.0016,0.992709161 C1188.46557,0.992443892 1201.00181,13.5282559 1201.00208,28.9922288 C1201.00208,28.992581 1201.00208,28.9929331 1201.00208,28.9932853 L1200.99951,102.475201 L1099.61053,102.475201 L1200.99951,122.853704 L1200.99951,270.977769 L1180.1272,286.823547 L1200.99951,299.993966 L1200.99951,409.124585 L1171.99973,409.124585 L1200.9994,423.495726 L1200.9994,634.312488 L1116.79003,650.293347 L1200.99971,670.045222 L1200.99859,718.993162 C1200.99853,734.456774 1188.46301,746.9926 1172.9994,746.993048 L994.389665,746.999146 C948.68438,740.002678 911.750384,736.504359 883.587675,736.504189 C855.424967,736.504019 820.842154,740.001907 779.839237,746.997853 L447.214403,746.998525 C338.19345,746.994949 263.744267,743.496837 223.866853,736.504189 C183.98944,729.511541 155.45475,733.009921 138.262784,746.99933 L29.0008224,746.993162 C13.5373408,746.992467 1.00208072,734.456643 1.00208072,718.993162 L1.00082233,693.001527 C6.15162282,689.248437 8.72702307,686.377961 8.72702307,684.390099 C8.72702307,682.402237 6.15162282,677.392975 1.00082233,669.362313 L1.00082233,616.917028 L24.4547923,601.697877 L1.00082233,590.72628 L1.00082233,386.87724 L35.4378677,356.969083 L3.53453405,302.278174 L1.00082233,152.068021 C19.6669408,135.356007 29,127 29,127 C29,127 19.6669408,129.161821 1.00082233,133.485462 L0.98553552,28.9932857 C0.984196496,13.5293127 13.519138,0.992200284 28.9831109,0.99086126 C28.9851907,0.99086108 28.9872706,0.990861132 28.9893504,0.990861415 L28.9893496,0.997100264 Z" id="add-a-new-location-shape"></path>
            </g>
        </g>
    </g>
</svg>