<?xml version="1.0" encoding="UTF-8"?>
<svg width="405px" height="75px" viewBox="0 0 405 75" version="1.1" xmlns="http://www.w3.org/2000/svg" xmlns:xlink="http://www.w3.org/1999/xlink">
    <!-- Generator: sketchtool 52.2 (67145) - http://www.bohemiancoding.com/sketch -->
    <title>8E5B2AA8-5A9D-4587-AA1B-9B37955704A2</title>
    <desc>Created with sketchtool.</desc>
    <g id="Booking-tool" stroke="none" stroke-width="1" fill="none" fill-rule="evenodd">
        <g id="Appointment-edit-booking-detail" transform="translate(-1153.000000, -820.000000)" fill="#24272A">
            <path d="M1166.31955,820.000001 L1171.06238,820.000001 C1187.10596,820.43851 1198.93418,820.657764 1206.54703,820.657764 C1214.15989,820.657764 1226.14167,820.43851 1242.49238,820.000001 L1338.51336,820.000001 L1400.8199,820.657764 L1412.60258,822.548836 L1438.60722,820.000001 L1547.79811,820 C1553.43242,820 1557.99993,824.567511 1557.99993,830.201821 C1557.99993,830.201844 1557.99993,830.201867 1557.99993,830.20189 L1550.95552,830.933994 L1557.99993,832.250671 L1557.99993,847.142525 L1550.95552,848.735602 L1557.99993,850.059708 L1557.99993,861.031303 L1533.91123,861.031303 L1557.99989,862.476125 L1557.99989,883.670875 L1547.02844,886.113845 L1558,887.263314 C1558,891.536167 1554.53617,894.999998 1550.26332,894.999998 L1488.26904,894.999981 L1452.1126,890.491749 L1415.85821,894.999851 L1303.59722,894.999919 L1228.12309,890 L1199.32595,895 L1158.42874,895 C1155.43053,895 1153,892.569469 1153,889.571257 C1154.7384,889.193935 1155.6076,888.905348 1155.6076,888.705496 C1155.6076,888.505643 1154.7384,888.00203 1153,887.194657 L1153,881.921999 L1160.91572,880.391921 L1153,879.288876 L1153,858.794636 L1164.62251,855.787779 L1153.85513,850.289354 L1153,835.187772 C1170.54264,835.01413 1179.31396,834.92731 1179.31396,834.92731 C1179.31396,834.92731 1170.54264,834.391389 1153,833.319549 C1153,825.963366 1158.96336,820.000001 1166.31955,820.000001 Z" id="main-person-reschedule"></path>
        </g>
    </g>
</svg>